<svg width="244" height="40" viewBox="0 0 244 40" fill="none" xmlns="http://www.w3.org/2000/svg">
<path d="M4.5979 16.6424C4.5979 9.68988 9.75933 4.80487 17.0724 4.80487C24.2894 4.80487 29.0218 10.2701 28.4487 17.9694H9.47436C9.95144 22.0274 12.7723 24.7584 16.5985 24.7584C19.5635 24.7584 22.2883 23.0211 23.1464 20.5369H28.0709C27.0174 25.1719 22.4292 28.4831 17.0276 28.4831C9.75933 28.4798 4.5979 23.5948 4.5979 16.6424ZM23.4794 14.2415C22.9543 10.8887 20.0854 8.52632 16.5473 8.52632C13.1053 8.52632 10.4765 10.8021 9.66327 14.2383H23.4794V14.2415Z" fill="#1E453C"/>
<path d="M59.8079 4.82093H64.0536V9.02319H66.0227C66.884 6.53902 69.4167 4.8017 72.8587 4.8017C78.5965 4.8017 82.7525 9.6867 82.7525 16.6392C82.7525 23.5949 78.5933 28.4767 72.9067 28.4767C69.5127 28.4767 67.0281 26.7394 66.0227 24.2552H64.1592V36.3427H59.8079V4.82093ZM71.2802 24.7552C75.1993 24.7552 77.9721 21.4024 77.9721 16.6424C77.9721 11.8824 75.1993 8.52956 71.2802 8.52956C67.3611 8.52956 64.6363 11.8407 64.5883 16.559C64.6331 21.3607 67.3579 24.7552 71.2802 24.7552Z" fill="#1E453C"/>
<path d="M86.1721 4.82093H90.3506V9.02319H92.387C93.3443 6.33387 95.3519 4.8017 99.223 4.8017C100.132 4.8017 101.279 4.88504 101.996 5.01005V9.48156C100.946 8.94305 99.223 8.52956 97.6444 8.52956C93.4852 8.52956 90.9525 11.4272 90.9525 16.6424V28.5792H86.1721V4.82093Z" fill="#1E453C"/>
<path d="M102.873 16.6424C102.873 9.68988 108.035 4.80487 115.348 4.80487C122.565 4.80487 127.297 10.2701 126.724 17.9694H107.746C108.223 22.0274 111.044 24.7584 114.871 24.7584C117.835 24.7584 120.56 23.0211 121.418 20.5369H126.343C125.289 25.1719 120.701 28.4831 115.3 28.4831C108.035 28.4798 102.873 23.5948 102.873 16.6424ZM121.755 14.2415C121.229 10.8887 118.361 8.52953 114.823 8.52953C111.38 8.52953 108.752 10.8054 107.938 14.2415H121.755Z" fill="#1E453C"/>
<path d="M175.674 21.3222C175.674 25.361 171.086 28.4286 165.348 28.4286C158.752 28.4286 154.314 25.7232 154.314 20.4728H158.999C158.999 23.7455 161.57 24.7936 165.681 24.7936C168.598 24.7936 170.891 23.5403 170.891 21.5209C170.891 19.7836 169.075 19.0175 166.875 18.6137L161.903 17.6841C157.219 16.7161 154.446 14.6967 154.446 11.5875C154.446 7.54867 159.082 4.92346 164.151 4.92346C170.365 4.92346 174.714 6.42038 174.714 11.4272H169.933C169.933 9.2315 166.642 8.47823 163.814 8.47823C161.519 8.47823 159.226 9.44626 159.226 11.5073C159.226 12.6773 159.991 13.5267 162.284 14.171C163.718 14.5749 165.726 14.9788 167.256 15.2224C172.088 15.9917 175.674 17.3251 175.674 21.3222Z" fill="#1E453C"/>
<path d="M151.609 21.3607C151.609 25.4091 147.021 28.483 141.283 28.483C134.687 28.483 130.224 25.7713 130.224 20.508H134.962C134.962 23.7872 137.508 24.8385 141.619 24.8385C144.536 24.8385 146.828 23.582 146.828 21.5594C146.828 19.8189 145.013 19.0496 142.813 18.6457L137.841 17.7162C133.156 16.7449 130.384 14.7223 130.384 11.6035C130.384 7.55508 135.02 4.92346 140.088 4.92346C146.303 4.92346 150.651 6.42358 150.651 11.4432H145.871C145.871 9.24432 142.58 8.48785 139.752 8.48785C137.457 8.48785 135.164 9.45908 135.164 11.5233C135.164 12.6965 135.929 13.5459 138.222 14.1934C139.656 14.5973 141.664 15.0044 143.194 15.2448C148.023 16.0173 151.609 17.3539 151.609 21.3607Z" fill="#1E453C"/>
<path d="M179.974 4.82092H184.755V28.4831H179.974V4.82092Z" fill="#1E453C"/>
<path d="M216.139 4.82093H220.411V9.01037H222.354C223.216 6.53581 225.796 4.8017 229.19 4.8017C234.163 4.8017 237.65 8.47507 237.65 13.7159V28.5792H232.869V13.7159C232.869 10.6611 230.67 8.51674 227.612 8.51674C223.693 8.51674 220.92 11.86 220.92 16.6039V28.5792H216.139V4.82093Z" fill="#1E453C"/>
<path d="M188.546 16.684C188.546 9.73156 193.518 4.84656 200.543 4.84656C207.523 4.84656 212.445 9.73156 212.445 16.684C212.445 23.6397 207.472 28.5215 200.495 28.5215C193.518 28.5215 188.546 23.6365 188.546 16.684ZM200.495 24.7969C204.702 24.7969 207.664 21.444 207.664 16.684C207.664 11.924 204.699 8.57122 200.495 8.57122C196.291 8.57122 193.326 11.924 193.326 16.684C193.326 21.444 196.291 24.7969 200.495 24.7969Z" fill="#1E453C"/>
<path d="M44.0386 19.8349C44.0386 22.7967 41.8485 24.0628 41.301 24.3385C40.8015 24.5917 33.0017 28.0087 31.721 28.5696C31.6377 28.6081 31.5449 28.544 31.5449 28.451V23.5083C31.5449 23.4538 31.5801 23.4057 31.6313 23.3865C32.6687 23.0339 42.7098 19.5945 42.7194 18.6393C42.7194 18.6041 42.7226 18.4566 42.7258 18.3797L42.7226 13.5652C42.7226 10.6034 44.9127 9.33729 45.4602 9.06162C45.9597 8.8084 53.7595 5.39146 55.0402 4.83051C55.1235 4.79205 55.2163 4.85616 55.2163 4.94911V9.89182C55.2163 9.94631 55.1811 9.99439 55.1299 10.0136C54.0925 10.3662 44.0514 13.8056 44.0418 14.7608C44.0418 14.7961 44.0386 14.9435 44.0354 15.0204L44.0386 19.8349Z" fill="#1E453C"/>
<path d="M31.5417 4.94272V9.76362C31.5417 9.8117 31.5673 9.85658 31.6089 9.87902L40.888 14.8506C40.9744 14.8954 41.0769 14.8345 41.0769 14.7352V11.908C41.0769 10.8791 40.2956 9.53925 39.1173 8.83406C38.0575 8.2026 32.7904 5.39468 31.7274 4.83053C31.6441 4.77925 31.5417 4.84336 31.5417 4.94272Z" fill="#1E453C"/>
<path d="M45.6652 18.6521V23.473C45.6652 23.5211 45.6908 23.566 45.7324 23.5884L55.0114 28.56C55.0979 28.6049 55.2003 28.544 55.2003 28.4446V25.6174C55.2003 24.5885 54.4191 23.2487 53.2408 22.5435C52.181 21.912 46.9139 19.1041 45.8509 18.54C45.7644 18.4919 45.6652 18.5528 45.6652 18.6521Z" fill="#1E453C"/>
</svg>
